<?xml version="1.0" encoding="UTF-8"?>
<svg xmlns="http://www.w3.org/2000/svg" xmlns:xlink="http://www.w3.org/1999/xlink" width="3840" height="2160" viewBox="0 0 3840 2160">
<path fill-rule="nonzero" fill="rgb(0%, 0%, 0%)" fill-opacity="1" d="M 1599.691406 1446.125 C 1731.621094 1428.488281 1688.101562 1405.046875 1845.351562 1411.804688 C 2143.871094 1408.949219 2593.828125 1396.328125 2870.019531 1277.957031 C 2886.738281 1260.425781 2945.160156 1253.125 2961.320312 1239.402344 C 2971.640625 1235.222656 2981.421875 1230.953125 2991.351562 1225.871094 C 2992.761719 1223.230469 2996.089844 1221.421875 2998.609375 1220.046875 C 3004.640625 1217.914062 3018.371094 1213.476562 3023.128906 1209.453125 C 3034.199219 1205.515625 3077.480469 1192.71875 3083.941406 1185.722656 C 3070.589844 1185.285156 3057.238281 1184.585938 3043.890625 1184.125 C 3060.109375 1179.828125 3099.078125 1168.949219 3109.039062 1154.101562 C 3106.308594 1154.140625 3103.570312 1154.171875 3100.851562 1153.929688 C 3119.101562 1149.050781 3144.710938 1141.550781 3160.621094 1131.089844 C 3176.980469 1126.511719 3220.640625 1113.878906 3230.359375 1098.738281 C 2985.511719 1101.128906 2725.410156 1133.480469 2467.550781 1136.859375 C 2556.648438 1131.128906 2648.179688 1123.140625 2737.191406 1120.21875 C 2662.929688 1114.238281 2582.238281 1114.488281 2507.179688 1111.730469 C 2603.269531 1105 2701.699219 1095.578125 2797.648438 1091.421875 C 2746.558594 1087.820312 2692.511719 1087.898438 2641.160156 1086.839844 C 2712.378906 1080.839844 2785.398438 1073.511719 2856.691406 1070.160156 C 2827.488281 1068.019531 2797.328125 1067.96875 2768.039062 1067.359375 C 2796.5 1066.179688 2925 1060.410156 2941.328125 1035.890625 C 3091.921875 1018.210938 3219.980469 966.570312 3359.5 938.730469 C 3314.71875 948.851562 3265.058594 954.589844 3219.460938 959.851562 C 3269.828125 946.75 3375.050781 912.871094 3420.300781 905.738281 C 3393.148438 912.21875 3364.339844 916.441406 3336.710938 920.171875 C 3365.140625 912.328125 3456.730469 883.269531 3480.929688 880.210938 C 3268.941406 924.699219 2961.328125 939.058594 2742.429688 944.878906 C 2868.058594 930.058594 3403.371094 865.429688 3486.140625 812.539062 C 3470.589844 812.429688 3455.050781 812.921875 3439.5 813.621094 C 3454.378906 810.269531 3539.878906 791.210938 3547.660156 778.878906 C 3544.5 779.050781 3541.339844 778.941406 3538.191406 779.101562 C 3549.730469 776.160156 3603.660156 762.511719 3610.230469 752.671875 C 3484.210938 754.980469 3359.839844 778.121094 3234.75 791.441406 C 2989.828125 816.199219 2751.019531 868.210938 2503.191406 861.828125 C 2559.511719 860.859375 2619.769531 862.21875 2675.308594 853.671875 C 2705.011719 855.898438 2725.410156 847 2751.339844 848.679688 C 2918.761719 819.25 3161.96875 784.449219 3319.269531 738.878906 C 3313.988281 731.71875 3231.738281 740.121094 3221.820312 741.050781 C 3233.328125 738.648438 3376.339844 708.839844 3379.691406 706.070312 C 3375.441406 701.699219 3345.570312 703.660156 3339.679688 704.019531 C 3346.210938 702.601562 3437.679688 682.589844 3439.058594 680.75 C 3430.171875 668.601562 3176.730469 704.230469 3148.871094 708.039062 C 3165.121094 703.148438 3219.441406 684.578125 3233.539062 683.351562 C 3204.898438 686.589844 3176.300781 690.089844 3147.730469 693.921875 C 3181.101562 684.949219 3266.621094 654.570312 3292.929688 651.039062 C 3279.679688 652.871094 3266.390625 654.390625 3253.101562 655.898438 C 3272.390625 649.949219 3334.558594 627.949219 3351.171875 626.210938 C 3061.191406 663.851562 2779.039062 720.648438 2487.261719 747.140625 C 2438.179688 751.871094 2250.078125 767.710938 2198.710938 785.898438 C 2113.371094 797.191406 2130.019531 817.710938 1995.328125 801.078125 C 1706.269531 782.371094 1269.828125 763.101562 992.1875 869.910156 C 974.46875 887.488281 917.304688 891.058594 900.453125 904.601562 C 890.105469 908.328125 880.261719 912.191406 870.214844 916.921875 C 868.613281 919.648438 865.234375 921.351562 862.671875 922.640625 C 856.648438 924.488281 842.976562 928.25 838.015625 932.210938 C 826.960938 935.628906 783.964844 946.199219 777.09375 953.230469 C 789.976562 954.671875 802.824219 956.398438 815.703125 957.859375 C 799.628906 961.289062 760.972656 970.121094 750.027344 985.308594 C 752.671875 985.46875 755.324219 985.628906 757.9375 986.089844 C 739.851562 989.988281 714.40625 996.171875 698.097656 1006.230469 C 681.863281 1009.949219 638.507812 1020.300781 627.777344 1035.828125 C 864.871094 1051.128906 1119.359375 1035.398438 1369.140625 1050.570312 C 1282.429688 1050.21875 1193.171875 1052.109375 1106.800781 1048.761719 C 1178.121094 1060.578125 1256.210938 1066.199219 1328.578125 1074.640625 C 1235.03125 1074.839844 1138.96875 1077.769531 1045.769531 1075.238281 C 1094.878906 1082.828125 1147.191406 1086.679688 1196.769531 1091.558594 C 1127.328125 1092.808594 1056.039062 1095.339844 986.773438 1093.730469 C 1014.839844 1098.160156 1044.011719 1100.410156 1072.300781 1103.199219 C 1044.660156 1102.390625 919.828125 1099.210938 901.871094 1124.308594 C 754.621094 1132.300781 626.171875 1178.34375 488.734375 1198.015625 C 532.957031 1190.433594 581.503906 1187.902344 626.089844 1185.582031 C 576.199219 1195.960938 471.417969 1224.621094 427.007812 1228.96875 C 453.84375 1223.992188 482.09375 1221.570312 509.15625 1219.585938 C 480.957031 1225.921875 389.785156 1250.414062 366.097656 1251.921875 C 575.117188 1219.671875 873.992188 1226.703125 1086.28125 1236.417969 C 963.4375 1243.152344 439.835938 1273.4375 355.097656 1324.121094 C 370.140625 1325.367188 385.214844 1325.980469 400.3125 1326.363281 C 385.632812 1328.871094 301.222656 1343.082031 292.613281 1355.730469 C 295.683594 1355.78125 298.730469 1356.132812 301.792969 1356.183594 C 290.375 1358.496094 236.996094 1369.210938 229.773438 1379.277344 C 351.894531 1385.988281 474.261719 1370.242188 596.453125 1365.074219 C 835.597656 1356.382812 1071.21875 1318.019531 1310.441406 1342.933594 C 1255.859375 1339.863281 1197.679688 1334.015625 1143.191406 1339.132812 C 1114.648438 1334.570312 1094.128906 1342.632812 1069.191406 1338.941406 C 904.621094 1358.289062 666.253906 1377.886719 510.050781 1415.285156 C 514.535156 1423.347656 594.84375 1420.335938 604.527344 1420.058594 C 593.175781 1421.789062 452.195312 1443.34375 448.710938 1446.070312 C 452.429688 1451.0625 481.507812 1451.140625 487.234375 1451.175781 C 480.792969 1452.230469 390.539062 1467.019531 389.035156 1468.886719 C 396.566406 1482.570312 644.910156 1462.832031 672.195312 1460.78125 C 656.046875 1464.84375 601.855469 1480.800781 588.101562 1481.085938 C 616.097656 1479.695312 644.078125 1478.035156 672.058594 1476.003906 C 638.976562 1483.199219 553.5625 1509.539062 527.800781 1511.402344 C 540.78125 1510.414062 553.769531 1509.746094 566.757812 1509.097656 C 547.582031 1514.070312 485.488281 1533.128906 469.269531 1533.789062 C 753.132812 1514.5625 1031.109375 1474.222656 1315.738281 1467.089844 C 1364.089844 1465.585938 1550.378906 1462.265625 1599.691406 1446.125 Z M 1639.511719 952.921875 C 1571.320312 947.378906 1503.101562 942.320312 1434.75 938.949219 C 1503.441406 938.269531 1571.628906 942.820312 1639.511719 952.921875 Z M 2198.050781 1246.238281 C 2268.570312 1246.605469 2339.070312 1246.535156 2409.570312 1244.882812 C 2339.058594 1250.3125 2268.640625 1250.859375 2198.050781 1246.238281 "/>
</svg>
